<svg width="267" height="176" viewBox="0 0 267 176" fill="none" xmlns="http://www.w3.org/2000/svg">
<path d="M0 0H267V176H0V0Z" fill="#F7FDFE"/>
<path d="M139.107 142.344C140.306 142.344 141.279 141.372 141.279 140.172C141.279 138.973 140.306 138 139.107 138C137.908 138 136.936 138.973 136.936 140.172C136.936 141.372 137.908 142.344 139.107 142.344Z" fill="#7BDBE7"/>
<path d="M131.541 142.344C132.74 142.344 133.712 141.372 133.712 140.172C133.712 138.973 132.74 138 131.541 138C130.342 138 129.37 138.973 129.37 140.172C129.37 141.372 130.342 142.344 131.541 142.344Z" fill="#7BDBE7"/>
<path d="M124.171 142.345C125.371 142.345 126.343 141.373 126.343 140.173C126.343 138.973 125.371 138.001 124.171 138.001C122.972 138.001 122 138.973 122 140.173C122 141.373 122.972 142.345 124.171 142.345Z" fill="#7BDBE7"/>
<path d="M144.423 46.6255L170.322 82.5157H118.523L144.423 46.6255Z" fill="#00BCD4"/>
<path d="M112.049 65.2534L129.06 82.4827H95.0392L112.049 65.2534Z" fill="#00BCD4"/>
<path d="M102.508 52.023C107.759 52.023 112.016 47.7645 112.016 42.5115C112.016 37.2584 107.759 33 102.508 33C97.2569 33 93 37.2584 93 42.5115C93 47.7645 97.2569 52.023 102.508 52.023Z" fill="#00BCD4"/>
<path fill-rule="evenodd" clip-rule="evenodd" d="M102.62 89.7812C101.846 89.7812 101.219 90.4088 101.219 91.183C101.219 91.9571 101.846 92.5846 102.62 92.5846H104.877C104.953 92.5974 105.031 92.6041 105.111 92.6041H163.111C163.191 92.6041 163.269 92.5974 163.345 92.5846H167.393C168.167 92.5846 168.795 91.9571 168.795 91.183C168.795 90.4088 168.167 89.7812 167.393 89.7812H155.62C155.534 89.7812 155.449 89.7891 155.367 89.8041H114.647C114.564 89.7891 114.48 89.7812 114.393 89.7812H102.62ZM95.4017 95.5942C94.6275 95.5942 94 96.2218 94 96.9959C94 97.7701 94.6275 98.3976 95.4017 98.3976H99.6718C99.6977 98.3991 99.7238 98.3998 99.75 98.3998H133H164C164.026 98.3998 164.052 98.3991 164.078 98.3976H167.393C168.167 98.3976 168.795 97.7701 168.795 96.9959C168.795 96.2218 168.167 95.5942 167.393 95.5942H148.402C148.359 95.5942 148.317 95.5961 148.276 95.5998H133H114.519C114.478 95.5961 114.436 95.5942 114.393 95.5942H95.4017ZM95.4017 112.769C94.6275 112.769 94 113.397 94 114.171C94 114.945 94.6275 115.572 95.4017 115.572H105.006C105.041 115.575 105.076 115.576 105.111 115.576H163.111C163.147 115.576 163.182 115.575 163.216 115.572H167.393C168.167 115.572 168.795 114.945 168.795 114.171C168.795 113.397 168.167 112.769 167.393 112.769H148.402C148.353 112.769 148.305 112.771 148.258 112.776H114.537C114.49 112.771 114.442 112.769 114.393 112.769H95.4017ZM95.4017 107.167C94.6275 107.167 94 107.795 94 108.569C94 109.343 94.6275 109.971 95.4017 109.971H102.62C102.706 109.971 102.79 109.963 102.872 109.948H148.15C148.232 109.963 148.316 109.971 148.402 109.971H155.62C156.395 109.971 157.022 109.343 157.022 108.569C157.022 107.795 156.395 107.167 155.62 107.167H154.732C154.656 107.155 154.579 107.148 154.5 107.148H96.5C96.421 107.148 96.3436 107.155 96.2682 107.167H95.4017ZM106.476 101.302C105.702 101.302 105.075 101.929 105.075 102.703C105.075 103.477 105.702 104.105 106.476 104.105H108.723C108.812 104.123 108.905 104.132 109 104.132H167C167.095 104.132 167.188 104.123 167.277 104.105H167.393C168.167 104.105 168.795 103.477 168.795 102.703C168.795 101.929 168.167 101.302 167.393 101.302H159.476C159.376 101.302 159.277 101.312 159.183 101.332H114.687C114.592 101.312 114.494 101.302 114.393 101.302H106.476Z" fill="#7BDBE7"/>
</svg>
