<svg width="1054" height="1080" viewBox="0 0 1054 1080" fill="none" xmlns="http://www.w3.org/2000/svg">
<g clip-path="url(#clip0)">
<mask id="mask0" mask-type="alpha" maskUnits="userSpaceOnUse" x="-235" y="-355" width="1289" height="1790">
<ellipse cx="409.5" cy="540" rx="644.5" ry="895" fill="#F5F9F9"/>
</mask>
<g mask="url(#mask0)">
<path opacity="0.61" d="M1389.94 305.566V12.9725C1335.94 27.1957 1292.4 66.9629 1272.96 118.631C1256.99 90.4749 1227.09 71.317 1192.26 71.317C1165.56 71.317 1141.75 82.6376 1124.92 100.634C1099.95 36.4845 1037.55 -8.79785 964.688 -8.79785C872.092 -8.79785 796.331 64.6407 792.848 156.366C787.332 155.205 781.527 154.335 775.722 154.335C749.017 154.335 725.505 167.977 711.572 188.586C696.768 138.95 650.615 102.956 596.044 102.956C556.857 102.956 522.025 121.824 499.964 150.851C486.031 91.3457 432.621 46.9342 368.762 46.9342C301.128 46.9342 245.106 96.8608 235.237 161.882C221.304 143.014 198.663 130.532 173.119 130.532C151.639 130.532 132.481 139.24 118.548 153.173C109.84 109.052 70.9435 75.671 24.2099 75.671C7.95472 75.671 -7.42965 79.7348 -21.0724 86.9916C-20.4918 83.2181 -20.2016 79.4446 -20.2016 75.671C-20.2016 45.7731 -37.0373 20.2292 -61.7103 7.16704V157.818V305.566H1389.94V305.566Z" fill="#72B3E3"/>
<path d="M1389.94 507.884V275.087C1374.55 268.121 1357.14 264.057 1339.14 264.057C1307.79 264.057 1279.05 275.668 1257.28 295.116C1238.41 219.936 1170.2 164.204 1089.21 164.204C1050.61 164.204 1014.91 176.976 985.878 198.165C986.169 195.553 986.169 192.65 986.169 189.747C986.169 121.534 931.017 66.3823 862.803 66.3823C794.59 66.3823 739.438 121.534 739.438 189.747C739.438 203.1 741.76 216.162 745.534 228.354C724.344 211.518 697.639 201.358 668.612 201.358C622.749 201.358 582.982 226.322 561.502 263.476C546.698 249.834 526.96 241.416 505.19 241.416C485.451 241.416 467.164 248.382 452.941 259.993C431.17 224.87 392.564 201.649 348.153 201.649C289.228 201.649 239.882 243.157 227.981 298.309C196.051 259.413 147.866 234.74 93.5853 234.74C25.3716 234.74 -33.8437 274.216 -62 331.69V507.594H1389.94V507.884Z" fill="#7AB8E5"/>
<path d="M1389.94 658.825V326.175C1328.98 355.492 1285.15 414.707 1277.02 484.663C1252.93 454.184 1215.77 434.736 1173.97 434.736C1131.59 434.736 1094.15 454.765 1070.06 485.534C1047.13 437.349 998.07 403.968 941.177 403.968H940.886C941.177 401.065 941.177 398.452 941.177 395.55C941.177 322.692 882.252 263.767 809.394 263.767C737.697 263.767 679.352 321.24 677.611 392.647C640.746 351.428 587.046 325.304 527.25 325.304C448.877 325.304 380.954 370.006 347.572 435.026C329.866 418.771 306.354 408.612 280.52 408.612C257.588 408.612 236.689 416.449 219.853 429.511C198.663 386.261 153.381 355.782 101.423 355.782C75.5885 355.782 51.496 363.33 31.177 376.101C23.63 325.014 -13.2345 283.795 -61.7097 269.282V658.535H1389.94V658.825Z" fill="#82BCE7"/>
<path d="M1389.94 870.433V543.878C1384.13 542.717 1378.32 542.136 1372.23 542.136C1325.79 542.136 1286.89 575.227 1278.18 619.348C1260.77 601.061 1236.09 589.451 1208.52 589.451C1189.07 589.451 1171.36 595.256 1156.27 605.125C1141.17 540.685 1083.41 492.5 1014.32 492.5C965.85 492.5 922.89 516.302 896.475 552.586C880.51 498.596 830.583 459.409 771.658 459.409C701.123 459.409 643.649 515.431 641.327 585.387C625.652 573.776 605.914 567.1 585.014 567.1C547.859 567.1 515.639 588.289 499.674 619.058C472.969 587.128 432.912 567.1 388.21 567.1C369.923 567.1 352.217 570.583 335.962 576.679C337.413 569.712 338.284 562.746 338.284 555.199C338.284 502.369 295.324 459.409 242.494 459.409C202.147 459.409 167.604 484.372 153.381 519.786C126.966 483.211 84.0063 459.409 35.2408 459.409C-2.20417 459.409 -36.1659 473.632 -62 496.564V870.723H1389.94V870.433Z" fill="#8EC2E9"/>
<path d="M1389.94 1024.57V698.883C1328.4 706.139 1274.99 740.101 1241.32 788.867C1223.61 779.868 1203.29 774.643 1182.1 774.643C1132.47 774.643 1089.51 802.219 1067.15 842.857C1050.9 826.602 1028.55 816.442 1003.88 816.442C993.425 816.442 983.556 818.184 974.268 821.377C976.88 811.218 978.041 800.768 978.041 789.737C978.041 717.46 919.406 658.825 847.129 658.825C788.204 658.825 738.567 697.722 722.022 751.131C706.347 737.779 686.319 729.942 664.258 729.942C628.845 729.942 598.367 750.551 583.853 780.159C559.761 749.68 522.606 729.942 480.807 729.942C412.593 729.942 356.861 781.9 350.475 848.372C311.869 803.09 254.395 774.353 189.955 774.353C143.802 774.353 101.132 789.157 66.2998 814.411C54.1084 754.905 1.27908 709.913 -62 709.913V1024.86H1389.94V1024.57Z" fill="#9DCBEC"/>
<path d="M1389.94 1081.75V729.361C1354.23 747.939 1329.56 785.384 1329.56 828.344C1329.56 833.859 1329.85 839.374 1330.72 844.599C1311.27 834.149 1288.92 828.344 1265.12 828.344C1197.49 828.344 1141.17 876.529 1128.4 940.388C1108.08 920.069 1080.22 907.588 1049.45 907.588C1012.58 907.588 980.073 925.294 959.754 952.87C945.821 858.822 864.545 786.545 766.433 786.545C673.837 786.545 596.625 850.695 576.306 937.195C544.376 895.106 493.869 867.821 436.976 867.821C358.022 867.821 291.55 920.069 269.78 992.057C249.751 962.159 215.789 942.42 177.183 942.42C158.896 942.42 142.061 946.774 126.676 954.612C105.777 881.754 38.724 828.634 -41.1005 828.634C-48.067 828.634 -55.0335 829.214 -62 829.795V1082.04H1389.94V1081.75Z" fill="#A6CFEE"/>
<path d="M641.164 569.827L676.287 677.517C678.899 685.065 688.188 687.967 694.284 682.742L799.362 595.951C799.362 595.951 687.607 552.411 687.607 554.733C687.898 557.055 641.164 569.827 641.164 569.827Z" fill="#B5D1DB"/>
<path d="M918.663 362.863C849.869 390.149 628.392 480.713 544.504 515.256C533.474 519.9 534.054 535.575 545.375 539.348L641.164 569.827L676.287 677.227C677.738 681.581 681.221 684.193 685.285 685.064C688.478 685.645 693.413 598.273 693.413 598.273C693.413 598.273 794.137 672.873 841.741 708.286C853.642 716.994 870.188 710.318 873.091 696.094C887.314 622.656 923.017 439.495 934.918 376.796C936.66 366.927 927.371 359.38 918.663 362.863Z" fill="white"/>
<path d="M685.285 685.064C688.478 685.645 693.413 598.273 693.413 598.273L858.867 442.978C860.028 441.817 858.577 440.075 857.416 440.946L641.454 570.117L676.577 677.517C677.738 681.581 681.221 684.193 685.285 685.064Z" fill="#D6E2EA"/>
<path d="M112 895.801C225.496 895.511 376.727 831.361 406.915 708.286C419.107 658.649 408.367 605.53 368.89 569.246C319.254 523.383 264.683 565.182 278.035 629.332C300.096 734.41 428.395 812.203 525.927 813.074C582.239 813.654 635.068 786.659 655.387 731.507" stroke="white" stroke-width="2" stroke-miterlimit="10" stroke-dasharray="5 5"/>
</g>
</g>
<defs>
<clipPath id="clip0">
<rect width="1054" height="1080" fill="white"/>
</clipPath>
</defs>
</svg>
