<svg width="40" height="40" viewBox="0 0 40 40" fill="none" xmlns="http://www.w3.org/2000/svg">
<path d="M16.6518 25.4361C17.0537 25.4365 17.4391 25.5964 17.7233 25.8806C18.0075 26.1648 18.1673 26.5502 18.1677 26.9521C18.1665 27.0732 18.1893 27.1933 18.2348 27.3055C18.2803 27.4177 18.3476 27.5198 18.4328 27.6059C18.518 27.6919 18.6194 27.7602 18.7312 27.8069C18.8429 27.8535 18.9628 27.8775 19.0839 27.8775C19.205 27.8775 19.3249 27.8535 19.4367 27.8069C19.5484 27.7602 19.6498 27.6919 19.735 27.6059C19.8202 27.5198 19.8875 27.4177 19.933 27.3055C19.9785 27.1933 20.0013 27.0732 20.0001 26.9521C19.9933 26.2244 19.7526 25.5183 19.3136 24.9379C18.8747 24.3575 18.2607 23.9337 17.5624 23.729V23.1323C17.5624 22.8889 17.4657 22.6554 17.2936 22.4832C17.1214 22.3111 16.8879 22.2144 16.6445 22.2144C16.401 22.2144 16.1675 22.3111 15.9954 22.4832C15.8232 22.6554 15.7265 22.8889 15.7265 23.1323V23.729C14.9491 23.9513 14.2782 24.4471 13.8375 25.1251C13.3968 25.803 13.2161 26.6174 13.3285 27.4181C13.441 28.2189 13.8391 28.9519 14.4495 29.4823C15.0599 30.0126 15.8414 30.3044 16.65 30.304C16.9499 30.3037 17.2431 30.3924 17.4926 30.5588C17.7421 30.7252 17.9366 30.9619 18.0516 31.2389C18.1665 31.5159 18.1968 31.8207 18.1384 32.1149C18.0801 32.4091 17.9358 32.6793 17.7238 32.8915C17.5119 33.1036 17.2417 33.2482 16.9476 33.3068C16.6535 33.3654 16.3486 33.3354 16.0715 33.2207C15.7944 33.106 15.5576 32.9117 15.3909 32.6624C15.2243 32.413 15.1353 32.1199 15.1353 31.82C15.1353 31.5761 15.0384 31.3421 14.8659 31.1696C14.6935 30.9972 14.4595 30.9003 14.2156 30.9003C13.9717 30.9003 13.7378 30.9972 13.5653 31.1696C13.3928 31.3421 13.2959 31.5761 13.2959 31.82C13.3013 32.547 13.5405 33.253 13.9783 33.8334C14.416 34.4139 15.029 34.838 15.7265 35.0431V35.6397C15.7265 35.8832 15.8232 36.1167 15.9954 36.2888C16.1675 36.461 16.401 36.5577 16.6445 36.5577C16.8879 36.5577 17.1214 36.461 17.2936 36.2888C17.4657 36.1167 17.5624 35.8832 17.5624 35.6397V35.0431C18.2607 34.8384 18.8747 34.4145 19.3136 33.8342C19.7526 33.2538 19.9933 32.5476 20.0001 31.82C19.9995 30.9314 19.6463 30.0794 19.0181 29.4509C18.39 28.8225 17.5381 28.469 16.6495 28.468C16.4494 28.4694 16.2511 28.4313 16.0658 28.3557C15.8806 28.2801 15.7121 28.1685 15.5702 28.0275C15.4283 27.8865 15.3156 27.7188 15.2388 27.5341C15.162 27.3493 15.1225 27.1512 15.1226 26.9511C15.1228 26.751 15.1625 26.553 15.2395 26.3683C15.3166 26.1837 15.4294 26.0161 15.5715 25.8752C15.7136 25.7344 15.8822 25.6231 16.0675 25.5477C16.2529 25.4723 16.4513 25.4344 16.6513 25.4361H16.6518Z" fill="#00BCD4"/>
<g clip-path="url(#clip0)">
<path d="M34.9148 13.6934H3.56629C2.79238 13.6934 2.16504 14.3207 2.16504 15.0946V18.8587H36.3161V15.0946C36.316 14.3208 35.6887 13.6934 34.9148 13.6934Z" fill="#FFB125"/>
<path d="M23.5336 5.9115L20.6947 34.651C20.6233 35.3729 19.9803 35.9003 19.2583 35.829L4.87396 34.4081C4.15201 34.3367 3.62459 33.6937 3.69591 32.9717L6.53482 4.23236C6.60615 3.51041 7.24919 2.98298 7.97115 3.05431L22.3555 4.47525C23.0774 4.5465 23.6048 5.18955 23.5336 5.9115Z" fill="#B6FA4C"/>
<path d="M22.3557 4.47513L7.97129 3.05419C7.24934 2.98286 6.60629 3.51028 6.53496 4.23224L6.28027 6.81068C6.49605 6.70107 6.7441 6.64864 7.00277 6.67419L21.3871 8.09513C22.1091 8.16646 22.6365 8.8095 22.5652 9.53146L19.981 35.6925C20.3673 35.4963 20.649 35.1142 20.6947 34.651L23.5336 5.91153C23.605 5.1895 23.0775 4.54646 22.3557 4.47513Z" fill="#A8E83A"/>
<path d="M8.05952 8.30744L5.9885 29.2736C5.9589 29.5737 6.10015 29.8662 6.35608 30.0257C7.06132 30.4654 7.60741 31.125 7.90749 31.8995C8.01538 32.1778 8.27304 32.3698 8.57007 32.3992L16.0269 33.1357C16.3239 33.1651 16.6142 33.0272 16.7744 32.7753C17.2201 32.0746 17.8848 31.5345 18.6624 31.2413C18.9446 31.1349 19.1404 30.8758 19.17 30.5757L21.241 9.60955C21.2706 9.30947 21.1294 9.01697 20.8734 8.85744C20.1682 8.41775 19.6221 7.75814 19.322 6.98369C19.2141 6.7054 18.9565 6.51337 18.6594 6.484L11.2026 5.74744C10.9056 5.71806 10.6153 5.85595 10.4551 6.10783C10.0094 6.80853 9.34475 7.34861 8.5671 7.64181C8.28499 7.74822 8.08921 8.00736 8.05952 8.30744Z" fill="#77DD00"/>
<path d="M20.8735 8.85744C20.1683 8.41775 19.6222 7.75814 19.3221 6.98369C19.2142 6.70533 18.9566 6.51337 18.6595 6.484L11.2027 5.74744C10.9057 5.71806 10.6154 5.85595 10.4552 6.10783C10.0094 6.80853 9.34478 7.34861 8.56712 7.64181C8.28493 7.74822 8.08915 8.00736 8.05954 8.30744L7.98071 9.10556L17.6427 10.0302C17.9397 10.0595 18.1974 10.2515 18.3052 10.5299C18.6053 11.3042 19.1514 11.9639 19.8566 12.4036C20.1126 12.5631 20.2538 12.8556 20.2242 13.1557L18.428 31.3396C18.505 31.3046 18.583 31.2714 18.6624 31.2414C18.9446 31.135 19.1404 30.8759 19.17 30.5758L21.241 9.60962C21.2707 9.30947 21.1294 9.01697 20.8735 8.85744Z" fill="#73CC00"/>
<path d="M35.7301 10.1933L19.4669 34.058C19.0584 34.6574 18.2412 34.8122 17.6418 34.4037L5.69726 26.2638C5.0978 25.8553 4.94296 25.0381 5.35148 24.4387L21.6148 0.573967C22.0233 -0.0254863 22.8405 -0.18033 23.4399 0.228186L35.3844 8.36811C35.9839 8.77662 36.1387 9.59373 35.7301 10.1933Z" fill="#B6FA4C"/>
<path d="M35.3843 8.36813L23.4397 0.228206C22.8403 -0.180309 22.0231 -0.0255436 21.6146 0.573988L20.2235 2.61532C20.3442 2.65305 20.4615 2.70868 20.5715 2.7836L32.5161 10.9235C33.1155 11.332 33.2704 12.1492 32.8619 12.7487L17.9897 34.5721C18.5272 34.7402 19.1333 34.5476 19.4669 34.058L35.7301 10.1933C36.1385 9.59375 35.9837 8.77664 35.3843 8.36813Z" fill="#A8E83A"/>
<path d="M21.0003 4.88142L9.13583 22.2913C8.96598 22.5406 8.94989 22.8649 9.09801 23.1276C9.50637 23.8514 9.66958 24.692 9.56184 25.5156C9.52317 25.8116 9.65731 26.1036 9.90395 26.2717L16.096 30.4913C16.3426 30.6595 16.6635 30.6775 16.9248 30.5332C17.6519 30.1318 18.494 29.9763 19.317 30.0915C19.6157 30.1333 19.9117 29.9997 20.0815 29.7505L31.946 12.3406C32.1158 12.0914 32.1319 11.767 31.9837 11.5044C31.5754 10.7806 31.4122 9.93993 31.5199 9.11642C31.5586 8.82048 31.4244 8.52845 31.1778 8.3604L24.9857 4.14064C24.7391 3.97251 24.4182 3.95446 24.1569 4.09876C23.4298 4.50017 22.5878 4.65571 21.7647 4.54048C21.4661 4.49853 21.17 4.6322 21.0003 4.88142Z" fill="#77DD00"/>
<path d="M31.9837 11.5044C31.5753 10.7805 31.4122 9.93991 31.5198 9.11639C31.5585 8.82045 31.4244 8.52842 31.1777 8.3603L24.9857 4.14061C24.739 3.97256 24.4182 3.95444 24.1568 4.09874C23.4298 4.50014 22.5877 4.65569 21.7647 4.54038C21.466 4.49858 21.17 4.63217 21.0001 4.88139L20.5057 5.60694L28.2443 10.8233C28.4909 10.9915 28.6251 11.2834 28.5864 11.5794C28.4787 12.4029 28.6419 13.2435 29.0502 13.9673C29.1983 14.23 29.1822 14.5544 29.0124 14.8036L18.6165 30.059C18.8495 30.0487 19.084 30.0589 19.317 30.0916C19.6157 30.1334 19.9117 29.9998 20.0815 29.7505L31.9459 12.3406C32.1158 12.0914 32.1319 11.767 31.9837 11.5044Z" fill="#73CC00"/>
<path d="M22.3579 19.9523C24.7046 19.9523 26.6071 18.0499 26.6071 15.7031C26.6071 13.3563 24.7046 11.4539 22.3579 11.4539C20.0111 11.4539 18.1086 13.3563 18.1086 15.7031C18.1086 18.0499 20.0111 19.9523 22.3579 19.9523Z" fill="#B6FA4C"/>
<path d="M35.4001 40.0001H2.66474C1.54864 40.0001 0.643799 39.0953 0.643799 37.9791V17.9797C0.643799 16.8636 1.54856 15.9587 2.66474 15.9587H35.4001C36.5162 15.9587 37.4211 16.8635 37.4211 17.9797V37.9791C37.4211 39.0953 36.5163 40.0001 35.4001 40.0001Z" fill="#00DDF9"/>
<path d="M35.4002 15.9587H31.7236C32.8397 15.9587 33.7446 16.8636 33.7446 17.9797V37.9791C33.7446 39.0952 32.8397 40.0001 31.7236 40.0001H35.4002C36.5163 40.0001 37.4211 39.0953 37.4211 37.9791V17.9797C37.4211 16.8636 36.5163 15.9587 35.4002 15.9587Z" fill="#008D9F"/>
<path d="M38.6239 24.1162H31.2561C29.1226 24.1162 27.3931 25.8457 27.3931 27.9793C27.3931 30.1128 29.1226 31.8423 31.2561 31.8423H38.6239C39.0283 31.8423 39.3561 31.5145 39.3561 31.1101V24.8484C39.3561 24.4441 39.0283 24.1162 38.6239 24.1162Z" fill="#005E6A"/>
<path d="M38.624 24.1162H34.9344C35.3388 24.1162 35.6666 24.444 35.6666 24.8484V30.1227C35.6666 30.5539 35.317 30.9036 34.8857 30.9036H31.2561C29.2816 30.9036 27.6542 29.4218 27.4224 27.5098C27.4038 27.6638 27.3931 27.8202 27.3931 27.9792C27.3931 30.1127 29.1226 31.8422 31.2561 31.8422H34.9343H38.6239C39.0283 31.8422 39.3561 31.5144 39.3561 31.11V30.1714V24.8484C39.3562 24.4441 39.0284 24.1162 38.624 24.1162Z" fill="#007685"/>
<path d="M35.4001 15.9587H2.66474C1.54864 15.9587 0.643799 16.8636 0.643799 17.9797V20.1944H37.4211V17.9797C37.4211 16.8636 36.5163 15.9587 35.4001 15.9587Z" fill="#00A5BA"/>
<path d="M37.3622 16.7051C37.2895 16.5976 37.2068 16.4974 37.1154 16.406C37.1143 16.4049 37.1132 16.404 37.1121 16.4029C37.0216 16.3127 36.9226 16.231 36.8163 16.1592C36.7894 16.1411 36.762 16.1235 36.7342 16.1066C36.6929 16.0815 36.6503 16.0583 36.6071 16.0362C36.5792 16.0218 36.5508 16.0081 36.522 15.995C36.2673 15.879 35.9845 15.814 35.6863 15.814H32.01C33.126 15.814 34.0307 16.7188 34.0307 17.8349V20.0495H37.7073V17.8349C37.7073 17.4861 37.6189 17.158 37.4634 16.8716C37.4324 16.8144 37.3985 16.7588 37.3622 16.7051Z" fill="#007685"/>
<path d="M2.66474 40H35.4001C36.5162 40 37.4211 39.0952 37.4211 37.9791V35.7644H0.643799V37.9791C0.643799 39.0952 1.54856 40 2.66474 40Z" fill="#00A5BA"/>
<path d="M34.0309 35.6198V37.8344C34.0309 37.8356 34.0309 37.8368 34.0309 37.8379C34.0306 38.0245 33.8743 38.1735 33.6877 38.1735H2.95111C1.83502 38.1735 0.930176 37.2687 0.930176 36.1526V37.8344C0.930176 38.9506 1.83494 39.8554 2.95111 39.8554H32.01H35.6866C35.7265 39.8554 35.766 39.8539 35.8053 39.8516C35.8176 39.8509 35.8298 39.8498 35.842 39.8488C35.8694 39.8467 35.8967 39.8442 35.9238 39.841C35.9372 39.8394 35.9506 39.8377 35.9641 39.8359C35.991 39.8323 36.0178 39.8279 36.0443 39.8232C36.0561 39.8211 36.068 39.8192 36.0797 39.8169C36.1173 39.8094 36.1546 39.8013 36.1914 39.7918C36.1914 39.7918 36.1915 39.7918 36.1916 39.7918C36.2078 39.7876 36.2235 39.7827 36.2396 39.7782C36.3195 39.7555 36.3976 39.7286 36.4732 39.6966C36.5035 39.6838 36.5333 39.6704 36.5628 39.6562C36.5922 39.6419 36.6213 39.6271 36.6499 39.6116L36.6499 39.6115C36.7071 39.5804 36.7627 39.5466 36.8164 39.5104L36.8165 39.5103L36.8166 39.5102C36.8624 39.4793 36.9064 39.4462 36.9493 39.4118C36.9514 39.4101 36.9535 39.4086 36.9554 39.4069C36.9989 39.3718 37.0408 39.3348 37.0813 39.2962C37.1289 39.2507 37.1742 39.203 37.2172 39.1532V39.1531C37.2844 39.0751 37.3459 38.9921 37.4007 38.9044C37.4022 38.9021 37.4038 38.8998 37.4053 38.8974C37.4254 38.8648 37.4449 38.8319 37.4633 38.7981C37.4633 38.798 37.4634 38.798 37.4635 38.7978V38.7977C37.5123 38.7078 37.5543 38.6136 37.5892 38.516C37.5932 38.5049 37.5968 38.4936 37.6006 38.4824C37.6091 38.4575 37.6171 38.4323 37.6246 38.407C37.6284 38.3941 37.6321 38.3812 37.6356 38.3683C37.6426 38.3428 37.649 38.3171 37.6549 38.2912C37.6577 38.2794 37.6606 38.2676 37.6631 38.2557C37.671 38.2184 37.6782 38.1808 37.684 38.1429C37.684 38.1426 37.6841 38.1425 37.6841 38.1423C37.6841 38.1422 37.6841 38.142 37.6841 38.1419C37.6909 38.0976 37.6956 38.0525 37.6995 38.0072C37.7004 37.9957 37.7013 37.9842 37.7021 37.9727C37.7053 37.927 37.7074 37.881 37.7074 37.8344V36.1526V35.6198L34.0309 35.6198Z" fill="#007685"/>
<path d="M31.3938 29.7734C32.3844 29.7734 33.1874 28.9703 33.1874 27.9797C33.1874 26.9891 32.3844 26.186 31.3938 26.186C30.4032 26.186 29.6001 26.9891 29.6001 27.9797C29.6001 28.9703 30.4032 29.7734 31.3938 29.7734Z" fill="#F2F2F2"/>
</g>
<defs>
<clipPath id="clip0">
<rect width="40" height="40" fill="white"/>
</clipPath>
</defs>
</svg>
