<svg width="45" height="45" viewBox="0 0 45 45" fill="none" xmlns="http://www.w3.org/2000/svg">
<path d="M42.8523 5.42188C43.2739 4.68049 43.0178 3.73794 42.2791 3.31137C41.5407 2.8848 40.5963 3.13445 40.1648 3.87016L38.613 6.55802L41.3005 8.10974L42.8523 5.42188Z" fill="#FF4A6D"/>
<path d="M0 17.0375H45V41.8651H0V17.0375Z" fill="#00BCD4"/>
<path d="M12.4138 33.3307H22.5V34.8824H12.4138V33.3307Z" fill="#FAFCFC"/>
<path d="M12.4138 28.6754H23.2759V30.2271H12.4138V28.6754Z" fill="#FAFCFC"/>
<path d="M12.4138 24.0203H25.6035V25.572H12.4138V24.0203Z" fill="#FAFCFC"/>
<path d="M23.3835 34.4876L27.6512 27.2488L28.9881 28.0368L24.7201 35.2756L23.3835 34.4876Z" fill="#FEC001"/>
<path d="M32.6142 13.8458L31.2705 13.0699L34.76 7.02441L40.1448 10.1059L39.3735 11.4538L35.3313 9.13909L32.6142 13.8458Z" fill="#FF2851"/>
<path d="M34.1379 24.0203H40.3448V25.572H34.1379V24.0203Z" fill="#FAFCFC"/>
<path d="M31.8103 28.6754H40.3448V30.2271H31.8103V28.6754Z" fill="#FAFCFC"/>
<path d="M28.707 33.3307H40.345V34.8824H28.707V33.3307Z" fill="#FAFCFC"/>
<path d="M0 17.0375V41.8651H29.4828C13.1897 41.8651 0 30.7609 0 17.0375Z" fill="#00A5BA"/>
<path d="M41.3006 8.10983L38.6131 6.55811L37.0652 9.23801L39.7405 10.8128L41.3006 8.10983Z" fill="#FF2851"/>
<path d="M37.0652 9.23804L32.5631 17.0376L25.425 29.4033C25.0033 30.1446 25.2594 31.0876 25.9982 31.5141C26.7369 31.9407 27.6813 31.6907 28.1125 30.955L39.7405 10.8129L37.0652 9.23804Z" fill="#FFE000"/>
<path d="M6.98286 27.1237C7.41133 27.1237 7.75872 27.4711 7.75872 27.8996H9.31045C9.30628 26.9169 8.68536 26.0425 7.75872 25.7148V24.7961H6.207V25.7148C5.13905 26.091 4.49806 27.1824 4.68975 28.2985C4.88182 29.4146 5.85051 30.2294 6.98286 30.2272C7.41133 30.2272 7.75872 30.5746 7.75872 31.003C7.75872 31.4315 7.41133 31.7789 6.98286 31.7789C6.55439 31.7789 6.207 31.4315 6.207 31.003H4.65527C4.65944 31.9857 5.28036 32.8601 6.207 33.1878V34.1065H7.75872V33.1878C8.82667 32.8116 9.46766 31.7202 9.27597 30.6041C9.0839 29.4881 8.11521 28.6732 6.98286 28.6755C6.55439 28.6755 6.207 28.3281 6.207 27.8996C6.207 27.4711 6.55439 27.1237 6.98286 27.1237V27.1237Z" fill="#FAFCFC"/>
<path d="M4.65527 37.9858H6.207V39.5376H4.65527V37.9858Z" fill="#FAFCFC"/>
<path d="M1.55176 37.9858H3.10348V39.5376H1.55176V37.9858Z" fill="#FAFCFC"/>
<path d="M7.75879 37.9858H9.31051V39.5376H7.75879V37.9858Z" fill="#FAFCFC"/>
<path d="M10.8621 37.9858H12.4138V39.5376H10.8621V37.9858Z" fill="#FAFCFC"/>
<path d="M13.9656 37.9858H15.5173V39.5376H13.9656V37.9858Z" fill="#FAFCFC"/>
<path d="M17.0691 37.9858H18.6208V39.5376H17.0691V37.9858Z" fill="#FAFCFC"/>
<path d="M20.1724 37.9858H21.7241V39.5376H20.1724V37.9858Z" fill="#FAFCFC"/>
<path d="M23.2759 37.9858H24.8276V39.5376H23.2759V37.9858Z" fill="#FAFCFC"/>
<path d="M26.3794 37.9858H27.9311V39.5376H26.3794V37.9858Z" fill="#FAFCFC"/>
<path d="M29.4829 37.9858H31.0346V39.5376H29.4829V37.9858Z" fill="#FAFCFC"/>
<path d="M32.5862 37.9858H34.1379V39.5376H32.5862V37.9858Z" fill="#FAFCFC"/>
<path d="M35.6897 37.9858H37.2414V39.5376H35.6897V37.9858Z" fill="#FAFCFC"/>
<path d="M38.7932 37.9858H40.3449V39.5376H38.7932V37.9858Z" fill="#FAFCFC"/>
<path d="M41.8965 37.9858H43.4482V39.5376H41.8965V37.9858Z" fill="#FAFCFC"/>
</svg>
