<svg width="48" height="40" viewBox="0 0 48 40" fill="none" xmlns="http://www.w3.org/2000/svg">
<path d="M45.1246 28.5267L47.936 10.5755C48.2284 8.7539 46.9889 7.03989 45.1672 6.74672L7.2311 0.657818C5.40947 0.365484 3.69556 1.60498 3.40323 3.42661L2.05518 11.8217V28.4222L45.1246 28.5267Z" fill="#008D9F"/>
<path d="M45.1673 6.74672L34.3926 5.01782C27.156 16.0906 15.4575 23.7599 6.48608 28.4331L45.1246 28.5267L47.936 10.5755C48.2284 8.75381 46.9889 7.0399 45.1673 6.74672Z" fill="#007685"/>
<path d="M3.36224 10.9865H41.7836C43.6286 10.9865 45.1246 12.4824 45.1246 14.3274V36.0439C45.1246 37.8889 43.6286 39.3849 41.7836 39.3849H3.36224C1.51719 39.3848 0.0212402 37.8889 0.0212402 36.0439V14.3274C0.0212402 12.4824 1.51719 10.9865 3.36224 10.9865Z" fill="#00BCD4"/>
<path d="M41.7835 10.9865H41.1152C33.2305 24.9844 18.4976 34.5863 9.50366 39.3848H41.7835C43.6285 39.3848 45.1245 37.8888 45.1245 36.0438V14.3274C45.1245 12.4824 43.6285 10.9865 41.7835 10.9865Z" fill="#00A4BA"/>
<path d="M12.55 15.1627H4.19751V21.8447H12.55V15.1627Z" fill="#FFE000"/>
<path d="M6.70328 17.6685H4.19751V19.3389H6.70328V17.6685Z" fill="#FF2851"/>
<path d="M12.55 17.6685H10.0442V19.3389H12.55V17.6685Z" fill="#FF2851"/>
<path d="M36.7722 35.2087C39.0786 35.2087 40.9484 33.3389 40.9484 31.0324C40.9484 28.726 39.0786 26.8562 36.7722 26.8562C34.4657 26.8562 32.5959 28.726 32.5959 31.0324C32.5959 33.3389 34.4657 35.2087 36.7722 35.2087Z" fill="#FFE000"/>
<path d="M31.7607 35.2087C34.0672 35.2087 35.9369 33.3389 35.9369 31.0324C35.9369 28.726 34.0672 26.8562 31.7607 26.8562C29.4542 26.8562 27.5845 28.726 27.5845 31.0324C27.5845 33.3389 29.4542 35.2087 31.7607 35.2087Z" fill="#FF4A6D"/>
<path d="M8.37375 27.6914H3.3623V29.3619H8.37375V27.6914Z" fill="#6AEEFF"/>
<path d="M16.7263 27.6914H11.7148V29.3619H16.7263V27.6914Z" fill="#6AEEFF"/>
<path d="M25.0786 27.6914H20.0671V29.3619H25.0786V27.6914Z" fill="#6AEEFF"/>
<path d="M25.0787 32.7029H3.3623V34.3733H25.0787V32.7029Z" fill="#6AEEFF"/>
<path d="M30.9253 15.1627H29.2549V18.5037H30.9253V15.1627Z" fill="#6AEEFF"/>
<path d="M34.2664 15.1627H32.5959V18.5037H34.2664V15.1627Z" fill="#6AEEFF"/>
<path d="M37.6075 15.1627H35.937V18.5037H37.6075V15.1627Z" fill="#6AEEFF"/>
<path d="M40.9483 15.1627H39.2778V18.5037H40.9483V15.1627Z" fill="#6AEEFF"/>
</svg>
