<svg width="47" height="47" viewBox="0 0 47 47" fill="none" xmlns="http://www.w3.org/2000/svg">
<path d="M15.9302 15.3287V12.9851H23.3516C25.8318 12.9851 28.0521 14.5546 28.8767 16.8906C29.1611 17.6965 30.0093 17.6815 29.9817 17.6723C30.4777 17.6723 30.92 17.36 31.086 16.8926C32.5979 12.6338 29.3689 7.51678 23.3517 7.51678H15.9304V5.17319C15.9304 4.24905 14.907 3.68842 14.1283 4.18538L5.9256 9.41936C5.19325 9.88655 5.20685 10.9643 5.9531 11.4119L14.1557 16.3335C14.9354 16.8015 15.9302 16.2383 15.9302 15.3287V15.3287Z" fill="#00BCD4"/>
<path d="M40.0471 36.588L31.8446 31.6664C31.0647 31.1984 30.0699 31.7617 30.0699 32.6712V35.0148H22.6485C20.1684 35.0148 17.9481 33.4453 17.1235 31.1093C16.839 30.3034 15.9909 30.3184 16.0185 30.3276C15.5224 30.3276 15.0802 30.6399 14.9142 31.1074C13.4022 35.3661 16.6313 40.4831 22.6485 40.4831H30.0698V42.8267C30.0698 43.7509 31.0931 44.3115 31.8719 43.8145L40.0745 38.5806C40.8069 38.1134 40.7933 37.0357 40.0471 36.588V36.588Z" fill="#00BCD4"/>
<path d="M23.8125 21.2126C23.8125 21.2126 23.8165 21.2168 23.8248 21.2239L23.8125 21.2126Z" fill="#00BCD4"/>
<path d="M19.3334 30.3293C19.8279 31.7301 21.1601 32.6712 22.6486 32.6712H27.7263C27.7263 29.9249 30.7335 28.2667 33.0505 29.6569L37.2014 32.1475C41.2219 25.1547 39.545 16.1097 32.9947 11.0305C33.935 13.1396 34.0598 15.5207 33.2944 17.6767C32.1851 20.8006 27.7672 20.7884 26.6667 17.6708C26.1722 16.27 24.84 15.3288 23.3515 15.3288H18.2738C18.2738 18.0561 15.29 19.7474 12.9496 18.3431L8.73973 15.8172C4.70387 22.8135 6.33036 31.9506 13.0468 37.0612C12.0688 34.9297 11.9292 32.5107 12.7057 30.3234C13.815 27.1994 18.2329 27.2116 19.3334 30.3293V30.3293ZM19.7415 26.8792C20.0957 26.3376 20.822 26.1858 21.3636 26.5401C21.9347 26.9136 22.1196 26.9422 22.9008 26.9375C23.6547 26.9326 23.955 26.3408 24.0136 25.992C24.0663 25.6788 24.0072 25.2624 23.4264 25.0571C22.4536 24.7133 21.4561 24.3187 20.749 23.7642C19.123 22.4888 19.6379 19.5689 21.7892 18.8339V18.1409C21.7892 17.4937 22.3138 16.9691 22.961 16.9691C23.6082 16.9691 24.1328 17.4937 24.1328 18.1409V18.7968C24.7048 18.9722 25.1463 19.2547 25.4013 19.4898L25.507 19.5873C25.9828 20.0261 26.0128 20.7673 25.5741 21.2432C25.1354 21.7188 24.3941 21.749 23.9183 21.3102L23.8273 21.2263C23.7529 21.1667 23.2863 20.8265 22.5643 21.0441C22.1229 21.1771 22.0658 21.8183 22.1954 21.9201C22.6375 22.2668 23.4606 22.5835 24.2075 22.8474C27.2767 23.9323 26.925 27.994 24.1329 29.0543V29.8588C24.1329 30.506 23.6083 31.0306 22.9611 31.0306C22.3139 31.0306 21.7893 30.506 21.7893 29.8588V29.2139C21.2289 29.1232 20.7237 28.9218 20.0807 28.5012C19.5389 28.147 19.3872 27.4208 19.7415 26.8792V26.8792Z" fill="#00BCD4"/>
</svg>
