<svg width="309" height="65" viewBox="0 0 309 65" fill="none" xmlns="http://www.w3.org/2000/svg">
<path d="M84.8109 51C84.4454 51 84.1348 50.8904 83.8789 50.6711C83.6596 50.4152 83.55 50.1046 83.55 49.7391V13.9404C83.55 13.5384 83.6596 13.2277 83.8789 13.0085C84.1348 12.7526 84.4454 12.6247 84.8109 12.6247H107.452C107.818 12.6247 108.11 12.7526 108.329 13.0085C108.585 13.2277 108.713 13.5384 108.713 13.9404V16.0237C108.713 16.3891 108.604 16.6998 108.384 16.9556C108.165 17.1749 107.854 17.2846 107.452 17.2846H88.8129V29.2905H106.246C106.612 29.2905 106.904 29.4185 107.123 29.6743C107.379 29.8936 107.507 30.2042 107.507 30.6063V32.6347C107.507 33.0002 107.379 33.3108 107.123 33.5667C106.904 33.7859 106.612 33.8956 106.246 33.8956H88.8129V46.3401H107.891C108.293 46.3401 108.604 46.4498 108.823 46.6691C109.042 46.8884 109.152 47.199 109.152 47.601V49.7391C109.152 50.1046 109.024 50.4152 108.768 50.6711C108.549 50.8904 108.256 51 107.891 51H84.8109ZM124.033 51.5482C122.242 51.5482 120.579 51.1827 119.044 50.4518C117.509 49.7208 116.285 48.734 115.371 47.4914C114.494 46.2122 114.055 44.8051 114.055 43.2701C114.055 40.858 115.042 38.8844 117.016 37.3494C119.026 35.7778 121.73 34.7545 125.129 34.2793L133.298 33.1281V31.5382C133.298 27.8104 131.16 25.9464 126.884 25.9464C125.276 25.9464 123.96 26.2936 122.936 26.988C121.913 27.6459 121.146 28.4317 120.634 29.3454C120.524 29.6743 120.378 29.9119 120.195 30.0581C120.049 30.2042 119.83 30.2773 119.538 30.2773H117.18C116.851 30.2773 116.559 30.1677 116.303 29.9484C116.084 29.6926 115.974 29.4002 115.974 29.0713C116.011 28.1941 116.413 27.2073 117.18 26.1109C117.984 24.9779 119.209 24.0094 120.853 23.2053C122.498 22.3647 124.526 21.9444 126.938 21.9444C131.032 21.9444 133.974 22.9129 135.765 24.85C137.556 26.7505 138.451 29.1261 138.451 31.9768V49.7391C138.451 50.1046 138.323 50.4152 138.067 50.6711C137.848 50.8904 137.556 51 137.19 51H134.668C134.303 51 133.992 50.8904 133.736 50.6711C133.517 50.4152 133.407 50.1046 133.407 49.7391V47.3818C132.603 48.5513 131.434 49.5381 129.899 50.3421C128.364 51.1462 126.409 51.5482 124.033 51.5482ZM125.184 47.4366C127.56 47.4366 129.497 46.6691 130.995 45.1341C132.53 43.5625 133.298 41.3148 133.298 38.391V36.856L126.938 37.7879C124.344 38.1534 122.388 38.7747 121.073 39.6519C119.757 40.4925 119.099 41.5706 119.099 42.8864C119.099 44.3483 119.702 45.4813 120.908 46.2853C122.114 47.0528 123.54 47.4366 125.184 47.4366ZM156.2 51.5482C153.642 51.5482 151.485 51.1462 149.731 50.3421C148.013 49.5015 146.716 48.5513 145.839 47.4914C144.998 46.4315 144.578 45.5544 144.578 44.86C144.578 44.4945 144.706 44.2204 144.962 44.0376C145.254 43.8183 145.546 43.7087 145.839 43.7087H148.306C148.671 43.7087 149 43.8914 149.293 44.2569C150.17 45.2803 151.12 46.0843 152.143 46.6691C153.167 47.2538 154.537 47.5462 156.255 47.5462C158.155 47.5462 159.69 47.1807 160.86 46.4498C162.066 45.6823 162.669 44.6407 162.669 43.3249C162.669 42.4478 162.413 41.7351 161.902 41.1869C161.426 40.6021 160.586 40.1087 159.38 39.7067C158.21 39.2681 156.456 38.793 154.117 38.2813C150.937 37.5869 148.671 36.5819 147.319 35.2661C146.003 33.9504 145.345 32.2509 145.345 30.1677C145.345 28.7789 145.747 27.4632 146.551 26.2205C147.392 24.9413 148.598 23.918 150.17 23.1505C151.778 22.3464 153.697 21.9444 155.926 21.9444C158.265 21.9444 160.257 22.3282 161.902 23.0957C163.546 23.8632 164.771 24.7769 165.575 25.8368C166.415 26.8601 166.836 27.719 166.836 28.4134C166.836 28.7423 166.708 29.0164 166.452 29.2357C166.232 29.455 165.958 29.5647 165.629 29.5647H163.327C162.888 29.5647 162.523 29.3819 162.23 29.0164C161.646 28.322 161.134 27.7921 160.695 27.4266C160.293 27.0246 159.69 26.6774 158.886 26.385C158.119 26.0926 157.132 25.9464 155.926 25.9464C154.172 25.9464 152.819 26.3302 151.869 27.0977C150.919 27.8286 150.444 28.7972 150.444 30.0032C150.444 30.7707 150.645 31.4286 151.047 31.9768C151.449 32.4885 152.216 32.9636 153.349 33.4022C154.519 33.8408 156.2 34.2976 158.393 34.7727C161.865 35.5037 164.314 36.5636 165.739 37.9524C167.201 39.3047 167.932 41.0407 167.932 43.1605C167.932 44.732 167.475 46.1574 166.561 47.4366C165.648 48.7158 164.295 49.7208 162.505 50.4518C160.75 51.1827 158.649 51.5482 156.2 51.5482ZM178.304 61.4162C178.011 61.4162 177.755 61.3065 177.536 61.0872C177.317 60.8679 177.207 60.6121 177.207 60.3197C177.207 60.0639 177.298 59.7349 177.481 59.3329L181.703 49.3005L171.232 24.5759C171.049 24.1007 170.957 23.7901 170.957 23.6439C170.957 23.315 171.067 23.0409 171.286 22.8216C171.506 22.6023 171.78 22.4926 172.109 22.4926H174.795C175.38 22.4926 175.818 22.8033 176.111 23.4246L184.444 43.3798L192.996 23.4246C193.288 22.8033 193.745 22.4926 194.366 22.4926H196.943C197.272 22.4926 197.546 22.6023 197.765 22.8216C197.985 23.0409 198.094 23.2967 198.094 23.5891C198.094 23.6987 198.003 24.0277 197.82 24.5759L182.251 60.4842C181.958 61.1055 181.501 61.4162 180.88 61.4162H178.304Z" fill="#00BCD4"/>
<path d="M205.098 51C204.733 51 204.422 50.8721 204.166 50.6162C203.91 50.3604 203.782 50.0498 203.782 49.6843V13.9953C203.782 13.5932 203.892 13.2643 204.111 13.0085C204.367 12.7526 204.696 12.6247 205.098 12.6247H219.79C224.176 12.6247 227.63 13.6663 230.152 15.7496C232.674 17.7962 233.934 20.8114 233.934 24.7952C233.934 28.7789 232.674 31.7941 230.152 33.8408C227.666 35.8509 224.213 36.856 219.79 36.856H211.622V49.6843C211.622 50.0498 211.494 50.3604 211.238 50.6162C211.019 50.8721 210.708 51 210.306 51H205.098ZM219.516 30.7707C221.636 30.7707 223.262 30.2773 224.395 29.2905C225.528 28.2672 226.095 26.7687 226.095 24.7952C226.095 22.8947 225.547 21.4145 224.45 20.3546C223.354 19.2581 221.709 18.7099 219.516 18.7099H211.512V30.7707H219.516ZM254.667 51.5482C249.696 51.5482 245.822 50.2873 243.045 47.7655C240.267 45.2437 238.805 41.4975 238.659 36.527C238.622 35.4671 238.604 33.9139 238.604 31.8672C238.604 29.7839 238.622 28.2124 238.659 27.1525C238.805 22.2916 240.304 18.5637 243.154 15.9688C246.005 13.3739 249.843 12.0765 254.667 12.0765C259.491 12.0765 263.329 13.3739 266.18 15.9688C269.067 18.5637 270.584 22.2916 270.73 27.1525C270.803 29.2723 270.839 30.8438 270.839 31.8672C270.839 32.854 270.803 34.4073 270.73 36.527C270.547 41.4975 269.067 45.2437 266.289 47.7655C263.512 50.2873 259.637 51.5482 254.667 51.5482ZM254.667 45.2437C257.116 45.2437 259.071 44.5127 260.533 43.0508C261.995 41.5524 262.781 39.2864 262.89 36.2529C262.963 34.06 263 32.5799 263 31.8124C263 30.9718 262.963 29.4916 262.89 27.3718C262.781 24.3383 261.995 22.0906 260.533 20.6287C259.071 19.1302 257.116 18.381 254.667 18.381C252.255 18.381 250.318 19.1302 248.856 20.6287C247.394 22.0906 246.608 24.3383 246.499 27.3718C246.462 28.4317 246.444 29.9119 246.444 31.8124C246.444 33.6763 246.462 35.1565 246.499 36.2529C246.608 39.2864 247.376 41.5524 248.801 43.0508C250.263 44.5127 252.218 45.2437 254.667 45.2437ZM291.36 51.5482C288.107 51.5482 285.311 51.0548 282.972 50.068C280.633 49.0812 278.861 47.7838 277.654 46.1757C276.448 44.5676 275.809 42.8315 275.736 40.9676C275.736 40.6387 275.845 40.3646 276.065 40.1453C276.284 39.926 276.558 39.8163 276.887 39.8163H281.766C282.205 39.8163 282.534 39.9077 282.753 40.0905C283.009 40.2366 283.246 40.4925 283.466 40.858C283.831 42.1006 284.672 43.1422 285.987 43.9828C287.303 44.8234 289.094 45.2437 291.36 45.2437C293.955 45.2437 295.91 44.8234 297.226 43.9828C298.542 43.1057 299.199 41.8996 299.199 40.3646C299.199 39.3412 298.852 38.5006 298.158 37.8428C297.5 37.1849 296.495 36.6184 295.143 36.1433C293.827 35.6682 291.853 35.0834 289.222 34.389C284.909 33.3656 281.748 32.0134 279.738 30.3322C277.764 28.6144 276.777 26.184 276.777 23.0409C276.777 20.9211 277.344 19.0389 278.477 17.3942C279.646 15.7496 281.309 14.4521 283.466 13.5019C285.658 12.5516 288.199 12.0765 291.086 12.0765C294.083 12.0765 296.678 12.6064 298.871 13.6663C301.063 14.7262 302.726 16.0602 303.859 17.6683C305.029 19.2399 305.65 20.8114 305.723 22.383C305.723 22.7119 305.614 22.986 305.394 23.2053C305.175 23.4246 304.901 23.5343 304.572 23.5343H299.474C298.706 23.5343 298.176 23.187 297.884 22.4926C297.664 21.3231 296.933 20.3546 295.691 19.5871C294.448 18.783 292.913 18.381 291.086 18.381C289.039 18.381 287.431 18.7648 286.261 19.5323C285.092 20.2998 284.507 21.4145 284.507 22.8764C284.507 23.8997 284.8 24.7403 285.384 25.3982C285.969 26.0561 286.883 26.6408 288.125 27.1525C289.405 27.6642 291.232 28.2307 293.608 28.852C296.824 29.5829 299.382 30.4053 301.283 31.319C303.22 32.2327 304.645 33.3839 305.559 34.7727C306.472 36.1616 306.929 37.9341 306.929 40.0905C306.929 42.4295 306.271 44.4762 304.956 46.2305C303.677 47.9483 301.849 49.264 299.474 50.1777C297.134 51.0914 294.43 51.5482 291.36 51.5482Z" fill="#00A4BA"/>
<path d="M55.5813 2.41656H3.70542C1.65897 2.41656 0 4.07554 0 6.12199V57.9979C0 60.0443 1.65897 61.7033 3.70542 61.7033H55.5813C57.6278 61.7033 59.2868 60.0443 59.2868 57.9979V6.12199C59.2868 4.07554 57.6278 2.41656 55.5813 2.41656Z" fill="#00BCD4"/>
<path d="M24.8798 8.8839C23.4583 8.8839 22.306 10.0363 22.306 11.4578C22.306 12.8793 23.4583 14.0316 24.8798 14.0316V8.8839ZM46.4977 14.0316C47.9192 14.0316 49.0716 12.8793 49.0716 11.4578C49.0716 10.0363 47.9192 8.8839 46.4977 8.8839V14.0316ZM11.6244 19.558C10.2029 19.558 9.05056 20.7104 9.05056 22.1319C9.05056 23.5534 10.2029 24.7058 11.6244 24.7058V19.558ZM46.4977 24.7058C47.9192 24.7058 49.0716 23.5534 49.0716 22.1319C49.0716 20.7104 47.9192 19.558 46.4977 19.558V24.7058ZM11.6244 51.0953C10.2029 51.0953 9.05056 52.2476 9.05056 53.6691C9.05056 55.0907 10.2029 56.243 11.6244 56.243V51.0953ZM46.4977 56.243C47.9192 56.243 49.0716 55.0907 49.0716 53.6691C49.0716 52.2476 47.9192 51.0953 46.4977 51.0953V56.243ZM11.6244 40.8093C10.2029 40.8093 9.05056 41.9616 9.05056 43.3832C9.05056 44.8047 10.2029 45.957 11.6244 45.957V40.8093ZM24.8798 45.957C26.3013 45.957 27.4537 44.8047 27.4537 43.3832C27.4537 41.9616 26.3013 40.8093 24.8798 40.8093V45.957ZM31.9605 30.0381C30.539 30.0381 29.3866 31.1905 29.3866 32.612C29.3866 34.0335 30.539 35.1858 31.9605 35.1858V30.0381ZM46.4977 35.1858C47.9192 35.1858 49.0716 34.0335 49.0716 32.612C49.0716 31.1905 47.9192 30.0381 46.4977 30.0381V35.1858ZM24.8798 14.0316H46.4977V8.8839H24.8798V14.0316ZM11.6244 24.7058H46.4977V19.558H11.6244V24.7058ZM11.6244 56.243H46.4977V51.0953H11.6244V56.243ZM11.6244 45.957H24.8798V40.8093H11.6244V45.957ZM31.9605 35.1858H46.4977V30.0381H31.9605V35.1858Z" fill="#FAFCFC"/>
</svg>
