<svg width="60" height="60" viewBox="0 0 60 60" fill="none" xmlns="http://www.w3.org/2000/svg">
<path d="M55.5813 0H3.70542C1.65897 0 0 1.65897 0 3.70542V55.5813C0 57.6278 1.65897 59.2868 3.70542 59.2868H55.5813C57.6278 59.2868 59.2868 57.6278 59.2868 55.5813V3.70542C59.2868 1.65897 57.6278 0 55.5813 0Z" fill="#00BCD4"/>
<path d="M24.8798 6.46733C23.4583 6.46733 22.3059 7.61969 22.3059 9.0412C22.3059 10.4627 23.4583 11.6151 24.8798 11.6151V6.46733ZM46.4977 11.6151C47.9192 11.6151 49.0716 10.4627 49.0716 9.0412C49.0716 7.61969 47.9192 6.46733 46.4977 6.46733V11.6151ZM11.6244 17.1415C10.2029 17.1415 9.05052 18.2938 9.05052 19.7153C9.05052 21.1368 10.2029 22.2892 11.6244 22.2892V17.1415ZM46.4977 22.2892C47.9192 22.2892 49.0716 21.1368 49.0716 19.7153C49.0716 18.2938 47.9192 17.1415 46.4977 17.1415V22.2892ZM11.6244 48.6787C10.2029 48.6787 9.05052 49.8311 9.05052 51.2526C9.05052 52.6741 10.2029 53.8264 11.6244 53.8264V48.6787ZM46.4977 53.8264C47.9192 53.8264 49.0716 52.6741 49.0716 51.2526C49.0716 49.8311 47.9192 48.6787 46.4977 48.6787V53.8264ZM11.6244 38.3927C10.2029 38.3927 9.05052 39.5451 9.05052 40.9666C9.05052 42.3881 10.2029 43.5405 11.6244 43.5405V38.3927ZM24.8798 43.5405C26.3013 43.5405 27.4537 42.3881 27.4537 40.9666C27.4537 39.5451 26.3013 38.3927 24.8798 38.3927V43.5405ZM31.9605 27.6215C30.539 27.6215 29.3866 28.7739 29.3866 30.1954C29.3866 31.6169 30.539 32.7693 31.9605 32.7693V27.6215ZM46.4977 32.7693C47.9192 32.7693 49.0716 31.6169 49.0716 30.1954C49.0716 28.7739 47.9192 27.6215 46.4977 27.6215V32.7693ZM24.8798 11.6151H46.4977V6.46733H24.8798V11.6151ZM11.6244 22.2892H46.4977V17.1415H11.6244V22.2892ZM11.6244 53.8264H46.4977V48.6787H11.6244V53.8264ZM11.6244 43.5405H24.8798V38.3927H11.6244V43.5405ZM31.9605 32.7693H46.4977V27.6215H31.9605V32.7693Z" fill="#FAFCFC"/>
</svg>
