<svg width="231" height="65" viewBox="0 0 231 65" fill="none" xmlns="http://www.w3.org/2000/svg">
<path d="M6.81089 51C6.44541 51 6.13475 50.8904 5.87892 50.6711C5.65963 50.4152 5.54999 50.1046 5.54999 49.7391V13.9404C5.54999 13.5384 5.65963 13.2277 5.87892 13.0085C6.13475 12.7526 6.44541 12.6247 6.81089 12.6247H29.4523C29.8178 12.6247 30.1102 12.7526 30.3295 13.0085C30.5853 13.2277 30.7132 13.5384 30.7132 13.9404V16.0237C30.7132 16.3891 30.6036 16.6998 30.3843 16.9556C30.165 17.1749 29.8543 17.2846 29.4523 17.2846H10.8129V29.2905H28.2462C28.6117 29.2905 28.9041 29.4185 29.1234 29.6743C29.3792 29.8936 29.5071 30.2042 29.5071 30.6063V32.6347C29.5071 33.0002 29.3792 33.3108 29.1234 33.5667C28.9041 33.7859 28.6117 33.8956 28.2462 33.8956H10.8129V46.3401H29.8909C30.2929 46.3401 30.6036 46.4498 30.8229 46.6691C31.0421 46.8884 31.1518 47.199 31.1518 47.601V49.7391C31.1518 50.1046 31.0239 50.4152 30.768 50.6711C30.5488 50.8904 30.2564 51 29.8909 51H6.81089ZM46.0329 51.5482C44.2421 51.5482 42.5791 51.1827 41.0441 50.4518C39.5091 49.7208 38.2848 48.734 37.3711 47.4914C36.4939 46.2122 36.0553 44.8051 36.0553 43.2701C36.0553 40.858 37.0421 38.8844 39.0157 37.3494C41.0259 35.7778 43.7304 34.7545 47.1294 34.2793L55.2978 33.1281V31.5382C55.2978 27.8104 53.1598 25.9464 48.8837 25.9464C47.2756 25.9464 45.9598 26.2936 44.9365 26.988C43.9131 27.6459 43.1456 28.4317 42.634 29.3454C42.5243 29.6743 42.3781 29.9119 42.1954 30.0581C42.0492 30.2042 41.8299 30.2773 41.5375 30.2773H39.1802C38.8513 30.2773 38.5589 30.1677 38.303 29.9484C38.0838 29.6926 37.9741 29.4002 37.9741 29.0713C38.0107 28.1941 38.4127 27.2073 39.1802 26.1109C39.9842 24.9779 41.2086 24.0094 42.8533 23.2053C44.4979 22.3647 46.5263 21.9444 48.9385 21.9444C53.0318 21.9444 55.974 22.9129 57.7648 24.85C59.5556 26.7505 60.4511 29.1261 60.4511 31.9768V49.7391C60.4511 50.1046 60.3232 50.4152 60.0673 50.6711C59.848 50.8904 59.5556 51 59.1902 51H56.6684C56.3029 51 55.9922 50.8904 55.7364 50.6711C55.5171 50.4152 55.4075 50.1046 55.4075 49.7391V47.3818C54.6034 48.5513 53.4339 49.5381 51.8989 50.3421C50.3638 51.1462 48.4085 51.5482 46.0329 51.5482ZM47.1842 47.4366C49.5598 47.4366 51.4968 46.6691 52.9953 45.1341C54.5303 43.5625 55.2978 41.3148 55.2978 38.391V36.856L48.9385 37.7879C46.3436 38.1534 44.3883 38.7747 43.0725 39.6519C41.7568 40.4925 41.099 41.5706 41.099 42.8864C41.099 44.3483 41.702 45.4813 42.9081 46.2853C44.1142 47.0528 45.5395 47.4366 47.1842 47.4366ZM78.2001 51.5482C75.6417 51.5482 73.4854 51.1462 71.7311 50.3421C70.0133 49.5015 68.7159 48.5513 67.8387 47.4914C66.9981 46.4315 66.5778 45.5544 66.5778 44.86C66.5778 44.4945 66.7058 44.2204 66.9616 44.0376C67.254 43.8183 67.5464 43.7087 67.8387 43.7087H70.3057C70.6712 43.7087 71.0001 43.8914 71.2925 44.2569C72.1697 45.2803 73.1199 46.0843 74.1433 46.6691C75.1666 47.2538 76.5371 47.5462 78.2549 47.5462C80.1554 47.5462 81.6904 47.1807 82.8599 46.4498C84.066 45.6823 84.669 44.6407 84.669 43.3249C84.669 42.4478 84.4132 41.7351 83.9015 41.1869C83.4264 40.6021 82.5858 40.1087 81.3797 39.7067C80.2102 39.2681 78.4559 38.793 76.1168 38.2813C72.9372 37.5869 70.6712 36.5819 69.3189 35.2661C68.0032 33.9504 67.3453 32.2509 67.3453 30.1677C67.3453 28.7789 67.7474 27.4632 68.5514 26.2205C69.392 24.9413 70.5981 23.918 72.1697 23.1505C73.7778 22.3464 75.6965 21.9444 77.926 21.9444C80.265 21.9444 82.2569 22.3282 83.9015 23.0957C85.5462 23.8632 86.7706 24.7769 87.5746 25.8368C88.4152 26.8601 88.8355 27.719 88.8355 28.4134C88.8355 28.7423 88.7076 29.0164 88.4518 29.2357C88.2325 29.455 87.9584 29.5647 87.6294 29.5647H85.3269C84.8883 29.5647 84.5229 29.3819 84.2305 29.0164C83.6457 28.322 83.134 27.7921 82.6955 27.4266C82.2934 27.0246 81.6904 26.6774 80.8863 26.385C80.1188 26.0926 79.132 25.9464 77.926 25.9464C76.1717 25.9464 74.8194 26.3302 73.8691 27.0977C72.9189 27.8286 72.4438 28.7972 72.4438 30.0032C72.4438 30.7707 72.6448 31.4286 73.0468 31.9768C73.4488 32.4885 74.2164 32.9636 75.3493 33.4022C76.5189 33.8408 78.2001 34.2976 80.3929 34.7727C83.865 35.5037 86.3137 36.5636 87.7391 37.9524C89.201 39.3047 89.9319 41.0407 89.9319 43.1605C89.9319 44.732 89.4751 46.1574 88.5614 47.4366C87.6477 48.7158 86.2954 49.7208 84.5046 50.4518C82.7503 51.1827 80.6488 51.5482 78.2001 51.5482ZM100.304 61.4162C100.011 61.4162 99.7553 61.3065 99.536 61.0872C99.3168 60.8679 99.2071 60.6121 99.2071 60.3197C99.2071 60.0639 99.2985 59.7349 99.4812 59.3329L103.703 49.3005L93.2315 24.5759C93.0488 24.1007 92.9574 23.7901 92.9574 23.6439C92.9574 23.315 93.0671 23.0409 93.2864 22.8216C93.5056 22.6023 93.7798 22.4926 94.1087 22.4926H96.795C97.3797 22.4926 97.8183 22.8033 98.1107 23.4246L106.444 43.3798L114.996 23.4246C115.288 22.8033 115.745 22.4926 116.366 22.4926H118.943C119.272 22.4926 119.546 22.6023 119.765 22.8216C119.985 23.0409 120.094 23.2967 120.094 23.5891C120.094 23.6987 120.003 24.0277 119.82 24.5759L104.251 60.4842C103.958 61.1055 103.501 61.4162 102.88 61.4162H100.304Z" fill="#00BCD4"/>
<path d="M127.098 51C126.733 51 126.422 50.8721 126.166 50.6162C125.91 50.3604 125.782 50.0498 125.782 49.6843V13.9953C125.782 13.5932 125.892 13.2643 126.111 13.0085C126.367 12.7526 126.696 12.6247 127.098 12.6247H141.79C146.176 12.6247 149.63 13.6663 152.152 15.7496C154.674 17.7962 155.934 20.8114 155.934 24.7952C155.934 28.7789 154.674 31.7941 152.152 33.8408C149.666 35.8509 146.213 36.856 141.79 36.856H133.622V49.6843C133.622 50.0498 133.494 50.3604 133.238 50.6162C133.019 50.8721 132.708 51 132.306 51H127.098ZM141.516 30.7707C143.636 30.7707 145.262 30.2773 146.395 29.2905C147.528 28.2672 148.095 26.7687 148.095 24.7952C148.095 22.8947 147.547 21.4145 146.45 20.3546C145.354 19.2581 143.709 18.7099 141.516 18.7099H133.512V30.7707H141.516ZM176.667 51.5482C171.696 51.5482 167.822 50.2873 165.045 47.7655C162.267 45.2437 160.805 41.4975 160.659 36.527C160.622 35.4671 160.604 33.9139 160.604 31.8672C160.604 29.7839 160.622 28.2124 160.659 27.1525C160.805 22.2916 162.304 18.5637 165.154 15.9688C168.005 13.3739 171.843 12.0765 176.667 12.0765C181.491 12.0765 185.329 13.3739 188.18 15.9688C191.067 18.5637 192.584 22.2916 192.73 27.1525C192.803 29.2723 192.839 30.8438 192.839 31.8672C192.839 32.854 192.803 34.4073 192.73 36.527C192.547 41.4975 191.067 45.2437 188.289 47.7655C185.512 50.2873 181.637 51.5482 176.667 51.5482ZM176.667 45.2437C179.116 45.2437 181.071 44.5127 182.533 43.0508C183.995 41.5524 184.781 39.2864 184.89 36.2529C184.963 34.06 185 32.5799 185 31.8124C185 30.9718 184.963 29.4916 184.89 27.3718C184.781 24.3383 183.995 22.0906 182.533 20.6287C181.071 19.1302 179.116 18.381 176.667 18.381C174.255 18.381 172.318 19.1302 170.856 20.6287C169.394 22.0906 168.608 24.3383 168.499 27.3718C168.462 28.4317 168.444 29.9119 168.444 31.8124C168.444 33.6763 168.462 35.1565 168.499 36.2529C168.608 39.2864 169.376 41.5524 170.801 43.0508C172.263 44.5127 174.218 45.2437 176.667 45.2437ZM213.36 51.5482C210.107 51.5482 207.311 51.0548 204.972 50.068C202.633 49.0812 200.861 47.7838 199.654 46.1757C198.448 44.5676 197.809 42.8315 197.736 40.9676C197.736 40.6387 197.845 40.3646 198.065 40.1453C198.284 39.926 198.558 39.8163 198.887 39.8163H203.766C204.205 39.8163 204.534 39.9077 204.753 40.0905C205.009 40.2366 205.246 40.4925 205.466 40.858C205.831 42.1006 206.672 43.1422 207.987 43.9828C209.303 44.8234 211.094 45.2437 213.36 45.2437C215.955 45.2437 217.91 44.8234 219.226 43.9828C220.542 43.1057 221.199 41.8996 221.199 40.3646C221.199 39.3412 220.852 38.5006 220.158 37.8428C219.5 37.1849 218.495 36.6184 217.143 36.1433C215.827 35.6682 213.853 35.0834 211.222 34.389C206.909 33.3656 203.748 32.0134 201.738 30.3322C199.764 28.6144 198.777 26.184 198.777 23.0409C198.777 20.9211 199.344 19.0389 200.477 17.3942C201.646 15.7496 203.309 14.4521 205.466 13.5019C207.658 12.5516 210.199 12.0765 213.086 12.0765C216.083 12.0765 218.678 12.6064 220.871 13.6663C223.063 14.7262 224.726 16.0602 225.859 17.6683C227.029 19.2399 227.65 20.8114 227.723 22.383C227.723 22.7119 227.614 22.986 227.394 23.2053C227.175 23.4246 226.901 23.5343 226.572 23.5343H221.474C220.706 23.5343 220.176 23.187 219.884 22.4926C219.664 21.3231 218.933 20.3546 217.691 19.5871C216.448 18.783 214.913 18.381 213.086 18.381C211.039 18.381 209.431 18.7648 208.261 19.5323C207.092 20.2998 206.507 21.4145 206.507 22.8764C206.507 23.8997 206.8 24.7403 207.384 25.3982C207.969 26.0561 208.883 26.6408 210.125 27.1525C211.405 27.6642 213.232 28.2307 215.608 28.852C218.824 29.5829 221.382 30.4053 223.283 31.319C225.22 32.2327 226.645 33.3839 227.559 34.7727C228.472 36.1616 228.929 37.9341 228.929 40.0905C228.929 42.4295 228.271 44.4762 226.956 46.2305C225.677 47.9483 223.849 49.264 221.474 50.1777C219.134 51.0914 216.43 51.5482 213.36 51.5482Z" fill="#00A4BA"/>
</svg>
